<svg width="26" height="26" viewBox="0 0 26 26" fill="none" xmlns="http://www.w3.org/2000/svg">
<g clip-path="url(#clip0_77_1501)">
<path d="M15.6787 14.2871L15.4022 12.4492C15.3879 12.3539 15.2878 12.2967 15.1972 12.3324L15.6787 14.2871ZM15.6787 14.2871L15.8814 15.6268M15.6787 14.2871L15.8814 15.6268M15.8814 15.6268C15.9004 15.7507 15.7669 15.8437 15.6573 15.7793L15.8814 15.6268ZM11.2092 17.193H11.1856L11.1808 17.1954H5.03345L0.609734 9.53154L2.11626 6.92294L2.29285 8.09001L2.29285 8.09001L2.29297 8.0908C2.32377 8.28398 2.43632 8.45368 2.60894 8.55272C2.78083 8.65135 2.98395 8.66532 3.16659 8.59508L3.16659 8.59508L3.16718 8.59485L4.20281 8.18894L3.45648 9.48152L3.42761 9.53151L3.45647 9.58151L6.4147 14.7066L6.44357 14.7566H6.50131H12.4178H12.4752L12.5041 14.707L12.6281 14.4949L12.6284 14.4944L12.8262 14.1511L12.8761 14.0646L12.7896 14.0146L12.2548 13.7056L12.2372 13.6946L12.2372 13.6945L12.2356 13.6936C12.1975 13.6707 12.2049 13.6151 12.2418 13.6009L12.2426 13.6005L12.4519 13.5173L12.4523 13.5171L13.3768 13.155L13.3768 13.1549L15.2338 12.4255L15.2339 12.4254C15.2656 12.4129 15.2987 12.4333 15.3033 12.4641L15.3033 12.4641L15.5799 14.302L15.5799 14.3021L15.7825 15.6417L15.7825 15.642C15.789 15.6843 15.7435 15.714 15.7079 15.6931L15.7072 15.6927L15.0779 15.3303L14.9913 15.2805L14.9413 15.3671L14.7435 15.7103L14.7435 15.7103L13.888 17.193H11.2092Z" fill="#191919" stroke="white" stroke-width="0.2"/>
<path d="M17.7435 8.53993H14.9281L12.5113 4.354L12.4824 4.304H12.4247H6.50821H6.45048L6.42161 4.354L5.50625 5.93919L5.50621 5.93926L5.30836 6.28252L5.25849 6.36905L5.34495 6.41903L5.95432 6.77132C5.99186 6.79441 5.98431 6.84954 5.94763 6.86376L5.94733 6.86388L4.71732 7.3454L4.71724 7.34543L2.95565 8.03672L2.95546 8.03679C2.92908 8.0472 2.90172 8.03482 2.89064 8.01263L2.88844 7.99806L2.59525 6.05777L2.59524 6.05769L2.40932 4.8206L2.40926 4.82026C2.40275 4.77792 2.44833 4.74828 2.48388 4.76915L2.48454 4.76953L3.05902 5.10087L3.14567 5.15084L3.19562 5.06418L3.39344 4.72097L3.39347 4.72092L5.04035 1.86758H13.8878L17.7435 8.53993Z" fill="#191919" stroke="white" stroke-width="0.2"/>
<path d="M22.2919 18.2941C22.3158 18.2847 22.3404 18.2938 22.3531 18.312L22.3566 18.3352L22.6498 20.2755L22.6498 20.2755L22.8357 21.5126L22.8358 21.513C22.8423 21.5553 22.7967 21.5849 22.7611 21.5641L22.7605 21.5637L22.186 21.2324L22.0993 21.1824L22.0494 21.269L21.8516 21.6123L21.8515 21.6123L20.2047 24.4656H11.3572L7.50377 17.7909H10.3193L12.7361 21.9768L12.765 22.0268H12.8227H18.7392H18.7969L18.8258 21.9768L19.7411 20.3917L19.7412 20.3916L19.939 20.0483L19.9889 19.9618L19.9025 19.9118L19.2936 19.5598C19.2934 19.5597 19.2933 19.5596 19.2931 19.5595C19.2555 19.5364 19.2631 19.4813 19.2998 19.4671L19.3001 19.467L20.5301 18.9854L20.5302 18.9854L22.2917 18.2941L22.2919 18.2941Z" fill="#191919" stroke="white" stroke-width="0.2"/>
<path d="M20.2179 9.13803L24.6403 16.7995L23.1338 19.4081L22.9572 18.241L22.957 18.2402C22.9262 18.0471 22.8137 17.8774 22.6411 17.7783C22.4692 17.6797 22.2661 17.6657 22.0834 17.736L22.0828 17.7362L21.0472 18.1421L21.7935 16.8495L21.8224 16.7995L21.7935 16.7495L18.8353 11.6245L18.8064 11.5745H18.7487H12.8322H12.7749L12.7459 11.624L12.6219 11.8362L12.6216 11.8367L12.4238 12.1799L12.3739 12.2665L12.4604 12.3165L12.9952 12.6255L13.0128 12.6365L13.0128 12.6365L13.0144 12.6374C13.0525 12.6603 13.0451 12.7159 13.0082 12.7302L13.0082 12.7302L13.0074 12.7305L12.7981 12.8137L12.7977 12.8139L11.8733 13.1761L11.8732 13.1761L10.0162 13.9055L10.0161 13.9056C9.98439 13.9181 9.95129 13.8977 9.94668 13.867L9.94667 13.8669L9.67016 12.0291L9.67015 12.029L9.46753 10.6893L9.46749 10.6891C9.46098 10.6467 9.50656 10.6171 9.54211 10.638L9.54283 10.6384L10.1721 11.0007L10.2588 11.0506L10.3087 10.964L10.5065 10.6208L10.5065 10.6207L11.362 9.13803H20.2179Z" fill="#191919" stroke="white" stroke-width="0.2"/>
</g>
<defs>
<clipPath id="clip0_77_1501">
<rect width="25" height="25" fill="white" transform="translate(0.125 0.666748)"/>
</clipPath>
</defs>
</svg>
